<?xml version="1.0" standalone="no"?>
<!DOCTYPE svg PUBLIC "-//W3C//DTD SVG 20010904//EN"
 "http://www.w3.org/TR/2001/REC-SVG-20010904/DTD/svg10.dtd">
<svg version="1.0" xmlns="http://www.w3.org/2000/svg"
 width="700.000000pt" height="700.000000pt" viewBox="0 0 700.000000 700.000000"
 preserveAspectRatio="xMidYMid meet">
<metadata>
Created by potrace 1.14, written by Peter Selinger 2001-2017
</metadata>
<g transform="translate(0.000000,700.000000) scale(0.100000,-0.100000)"
fill="#000000" stroke="none">
<path d="M1823 6983 c-18 -10 -388 -372 -821 -806 -649 -648 -791 -794 -800
-826 -16 -53 -17 -5167 -1 -5226 12 -44 49 -89 91 -111 41 -22 5035 -21 5077
1 39 20 78 69 91 113 6 25 10 503 10 1432 l0 1396 401 432 c221 238 414 449
430 470 15 20 179 199 363 397 l336 360 0 100 0 100 -521 485 c-287 267 -535
493 -552 503 -18 9 -48 17 -67 17 -19 0 -49 -8 -66 -17 -17 -10 -97 -89 -178
-175 l-146 -158 0 683 c0 438 -4 695 -10 719 -6 21 -22 51 -37 68 -54 65 88
60 -1825 60 -1641 0 -1745 -1 -1775 -17z m3295 -1109 l2 -781 -66 -69 c-37
-38 -174 -185 -306 -326 l-240 -258 -1820 0 c-1996 0 -1847 5 -1901 -60 -60
-71 -36 -191 48 -237 l40 -23 1663 0 c914 0 1662 -2 1662 -6 0 -3 -100 -113
-222 -244 l-222 -240 -1446 -2 -1445 -3 -37 -23 c-40 -25 -78 -91 -78 -137 0
-46 38 -112 78 -137 l37 -23 1290 -5 1290 -5 -214 -230 c-118 -126 -245 -263
-284 -302 l-69 -73 -1005 0 c-1100 0 -1033 4 -1086 -60 -60 -71 -36 -191 48
-237 l40 -23 853 0 c468 0 852 -2 852 -4 0 -3 -8 -20 -19 -38 -12 -21 -31
-109 -52 -240 l-33 -208 -806 -2 -805 -3 -37 -23 c-40 -25 -78 -91 -78 -137 0
-46 38 -112 78 -137 l37 -23 778 -3 c427 -1 777 -5 777 -8 0 -8 -69 -423 -76
-457 l-6 -27 -731 0 -732 0 -40 -23 c-84 -46 -108 -166 -48 -237 53 -63 2 -60
915 -60 806 0 834 1 865 19 17 11 41 33 53 49 20 28 58 40 592 193 664 190
581 149 812 400 l138 149 276 0 c157 0 293 5 314 10 44 13 93 66 107 117 21
75 -33 172 -107 193 -20 5 -92 10 -160 10 l-123 0 323 347 323 347 3 -1105 c1
-607 0 -1110 -3 -1117 -3 -10 -466 -12 -2287 -10 l-2283 3 -3 2402 -2 2402
697 3 c787 3 747 -1 801 81 l27 41 3 693 2 693 1523 -2 1522 -3 3 -781z
m-3398 31 l0 -405 -416 0 c-258 0 -414 4 -412 10 3 9 818 800 825 800 1 0 3
-182 3 -405z m4560 -812 c223 -207 405 -381 405 -387 0 -12 -547 -605 -557
-603 -4 1 -181 164 -394 362 -212 198 -397 369 -411 380 l-24 20 281 303 c155
166 285 302 288 302 4 0 189 -170 412 -377z m-758 -822 c222 -206 404 -378
406 -382 5 -12 -2148 -2324 -2163 -2323 -7 1 -196 172 -419 379 l-407 378 34
36 c19 20 505 544 1082 1164 576 620 1051 1127 1056 1125 4 -2 190 -171 411
-377z m-2452 -2566 c296 -274 361 -337 357 -341 -5 -5 -764 -224 -775 -224 -6
0 75 526 123 799 l6 34 32 -30 c18 -16 133 -123 257 -238z"/>
<path d="M2350 6042 c-36 -19 -80 -88 -80 -127 0 -39 44 -108 80 -127 33 -17
92 -18 1210 -18 1330 0 1223 -7 1268 80 28 55 28 75 0 130 -45 87 62 80 -1268
80 -1118 0 -1177 -1 -1210 -18z"/>
<path d="M2263 5220 c-112 -68 -72 -246 59 -265 24 -3 579 -5 1235 -3 1186 3
1192 3 1219 24 93 69 95 181 5 241 l-34 23 -1226 0 c-1198 0 -1227 -1 -1258
-20z"/>
</g>
</svg>
