<?xml version="1.0" standalone="no"?>
<!DOCTYPE svg PUBLIC "-//W3C//DTD SVG 20010904//EN"
 "http://www.w3.org/TR/2001/REC-SVG-20010904/DTD/svg10.dtd">
<svg version="1.0" xmlns="http://www.w3.org/2000/svg"
 width="700.000000pt" height="700.000000pt" viewBox="0 0 700.000000 700.000000"
 preserveAspectRatio="xMidYMid meet">
<metadata>
Created by potrace 1.14, written by Peter Selinger 2001-2017
</metadata>
<g transform="translate(0.000000,700.000000) scale(0.100000,-0.100000)"
fill="#000000" stroke="none">
<path d="M2595 6906 c-41 -19 -272 -244 -1221 -1189 -1010 -1005 -1174 -1173
-1195 -1219 l-24 -53 0 -2100 c0 -1989 1 -2102 18 -2138 27 -57 86 -118 142
-143 l50 -24 2410 0 2410 0 50 24 c62 29 107 76 137 141 l23 50 5 1326 5 1326
646 696 c355 382 654 713 664 734 42 87 28 213 -33 284 -31 38 -963 905 -1006
937 -58 43 -173 56 -241 28 l-34 -15 -3 572 -3 572 -23 50 c-30 65 -75 112
-137 141 l-50 24 -1270 0 -1270 0 -50 -24z m2531 -270 l34 -34 0 -714 0 -713
-107 -115 c-58 -63 -156 -169 -218 -235 -61 -66 -318 -342 -569 -612 l-458
-493 -1314 0 -1315 0 -24 -25 c-32 -31 -32 -75 -1 -112 l24 -28 1236 -3 1236
-2 -520 -560 -521 -560 -715 0 -715 0 -24 -25 c-31 -30 -32 -73 -4 -109 l20
-26 680 0 679 0 0 -27 c0 -15 -36 -241 -80 -502 -44 -262 -82 -491 -85 -508
l-6 -33 -590 -2 -591 -3 -24 -28 c-31 -37 -31 -81 1 -112 l24 -25 600 0 c419
0 607 -3 624 -11 28 -12 31 -12 811 215 327 95 435 130 453 148 12 13 312 334
666 713 354 380 685 734 736 787 l91 98 0 -1315 0 -1315 -29 -32 -29 -33
-2331 0 -2331 0 -27 28 -28 27 -3 2028 -2 2027 1107 1108 c610 609 1126 1121
1147 1137 l40 30 1209 0 1209 0 34 -34z m174 -2421 c195 -180 368 -340 383
-355 l28 -26 -1017 -1095 c-559 -602 -1024 -1103 -1035 -1113 -17 -19 -19 -19
-38 -2 -10 9 -40 65 -66 124 -26 59 -57 117 -68 129 -13 15 -48 28 -111 43
-87 20 -94 23 -158 83 -64 59 -68 66 -89 142 -11 44 -30 90 -41 102 -11 12
-68 38 -127 59 -58 20 -116 47 -129 59 l-23 22 1033 1111 1033 1112 35 -34
c19 -18 195 -180 390 -361z m-2472 -2049 c68 -24 124 -45 126 -47 1 -2 17 -60
35 -129 17 -69 40 -136 50 -150 17 -24 86 -45 306 -95 15 -3 35 -37 73 -126
29 -66 51 -123 48 -126 -8 -8 -518 -153 -539 -153 -10 0 -87 53 -172 118 -120
91 -153 121 -150 137 2 11 25 154 52 318 26 163 48 297 48 297 0 0 55 -20 123
-44z"/>
<path d="M3140 5145 l0 -85 585 0 586 0 24 25 c34 33 34 83 -1 116 l-26 24
-584 3 -584 2 0 -85z"/>
<path d="M4488 2949 l-916 -1021 57 -99 56 -98 21 22 c45 47 1850 1994 1868
2015 l20 23 -89 89 c-49 50 -92 90 -96 90 -3 0 -418 -459 -921 -1021z"/>
</g>
</svg>
